<?xml version="1.0" encoding="UTF-8"?>
<!DOCTYPE svg PUBLIC "-//W3C//DTD SVG 1.1//EN" "http://www.w3.org/Graphics/SVG/1.1/DTD/svg11.dtd">
<svg xmlns="http://www.w3.org/2000/svg" version="1.1" width="500px" height="500px" style="shape-rendering:geometricPrecision; text-rendering:geometricPrecision; image-rendering:optimizeQuality; fill-rule:evenodd; clip-rule:evenodd" xmlns:xlink="http://www.w3.org/1999/xlink">
<g><path style="opacity:1" fill="#bec2c7" d="M 157.5,69.5 C 155.234,69.1412 153.401,69.8078 152,71.5C 151.501,77.4908 151.334,83.4908 151.5,89.5C 139.167,89.5 126.833,89.5 114.5,89.5C 114.666,82.4921 114.5,75.4921 114,68.5C 113.617,69.056 113.117,69.3893 112.5,69.5C 112.334,61.4931 112.5,53.4931 113,45.5C 119.115,30.3609 129.615,26.1943 144.5,33C 148.039,34.9069 150.539,37.7403 152,41.5C 153.381,50.4321 153.881,59.4321 153.5,68.5C 155.099,68.2322 156.432,68.5655 157.5,69.5 Z"/></g>
<g><path style="opacity:0.999" fill="#bec3c6" d="M 389.5,69.5 C 388.508,69.3284 387.842,69.6618 387.5,70.5C 386.833,76.8333 386.167,83.1667 385.5,89.5C 373.5,89.5 361.5,89.5 349.5,89.5C 349.5,82.8333 349.5,76.1667 349.5,69.5C 348.5,69.5 347.5,69.5 346.5,69.5C 347.302,61.5782 347.802,53.5782 348,45.5C 353.445,30.5955 363.611,26.0955 378.5,32C 383.526,35.2289 386.693,39.7289 388,45.5C 388.198,53.5782 388.698,61.5782 389.5,69.5 Z"/></g>
<g><path style="opacity:0.224" fill="#cf817b" d="M 157.5,69.5 C 220.5,69.5 283.5,69.5 346.5,69.5C 347.5,69.5 348.5,69.5 349.5,69.5C 349.5,76.1667 349.5,82.8333 349.5,89.5C 349.5,97.8333 349.5,106.167 349.5,114.5C 347.887,100.032 347.22,85.365 347.5,70.5C 283.331,70.1675 219.331,70.5009 155.5,71.5C 154.833,71.5 154.5,71.8333 154.5,72.5C 153.669,86.6608 153.169,100.994 153,115.5C 152.722,116.416 152.222,117.082 151.5,117.5C 151.5,116.5 151.5,115.5 151.5,114.5C 151.5,106.167 151.5,97.8333 151.5,89.5C 151.334,83.4908 151.501,77.4908 152,71.5C 153.401,69.8078 155.234,69.1412 157.5,69.5 Z"/></g>
<g><path style="opacity:0.936" fill="#c95046" d="M 155.5,71.5 C 219.331,70.5009 283.331,70.1675 347.5,70.5C 347.22,85.365 347.887,100.032 349.5,114.5C 350.167,115.167 350.833,115.833 351.5,116.5C 351.5,117.833 351.5,119.167 351.5,120.5C 350.417,120.461 349.417,120.127 348.5,119.5C 347.239,116.275 345.906,113.108 344.5,110C 346.261,106.775 346.928,103.275 346.5,99.5C 346.818,90.2494 346.485,81.0828 345.5,72C 282.168,71.5 218.834,71.3333 155.5,71.5 Z"/></g>
<g><path style="opacity:1" fill="#e54d3d" d="M 102.5,71.5 C 103.5,71.5 104.5,71.5 105.5,71.5C 107.792,71.2436 109.959,71.5769 112,72.5C 112.5,81.1603 112.666,89.8269 112.5,98.5C 111.206,99.2899 110.039,100.29 109,101.5C 101.18,118.065 104.013,132.565 117.5,145C 138.58,152.582 153.247,146.082 161.5,125.5C 162.015,123.364 162.349,121.197 162.5,119C 161.726,112.426 160.059,106.259 157.5,100.5C 156.5,100.5 155.5,100.5 154.5,100.5C 154.5,91.1667 154.5,81.8333 154.5,72.5C 154.5,71.8333 154.833,71.5 155.5,71.5C 218.834,71.3333 282.168,71.5 345.5,72C 346.485,81.0828 346.818,90.2494 346.5,99.5C 344.292,100.894 342.792,102.894 342,105.5C 336.586,120.82 340.086,133.653 352.5,144C 359.757,147.356 367.424,148.356 375.5,147C 388.45,142.53 395.783,133.363 397.5,119.5C 398.125,111.347 395.458,104.68 389.5,99.5C 389.32,90.4719 389.653,81.4719 390.5,72.5C 394.689,72.428 398.689,73.2613 402.5,75C 402.167,75.3333 401.833,75.6667 401.5,76C 404.226,76.1816 406.893,76.6816 409.5,77.5C 414.537,81.8717 418.87,86.8717 422.5,92.5C 422.263,96.2733 422.763,99.9399 424,103.5C 424.828,130.739 424.661,157.905 423.5,185C 307.834,185.5 192.167,185.667 76.5,185.5C 76.3334,157.831 76.5,130.165 77,102.5C 78.3988,98.347 79.2321,94.0137 79.5,89.5C 82.2956,86.2026 85.2956,83.0359 88.5,80C 93.3176,77.3351 97.9843,74.5017 102.5,71.5 Z"/></g>
<g><path style="opacity:1" fill="#ca9592" d="M 114.5,89.5 C 114.5,97.5 114.5,105.5 114.5,113.5C 114.167,113.5 113.833,113.5 113.5,113.5C 113.5,99.1667 113.5,84.8333 113.5,70.5C 110.615,70.1936 107.948,70.5269 105.5,71.5C 104.5,71.5 103.5,71.5 102.5,71.5C 102.167,71.5 101.833,71.5 101.5,71.5C 104.845,69.783 108.511,69.1164 112.5,69.5C 113.117,69.3893 113.617,69.056 114,68.5C 114.5,75.4921 114.666,82.4921 114.5,89.5 Z"/></g>
<g><path style="opacity:0.953" fill="#d56e66" d="M 101.5,71.5 C 101.833,71.5 102.167,71.5 102.5,71.5C 97.9843,74.5017 93.3176,77.3351 88.5,80C 85.2956,83.0359 82.2956,86.2026 79.5,89.5C 84.1251,80.2098 91.4585,74.2098 101.5,71.5 Z"/></g>
<g><path style="opacity:1" fill="#bd5d56" d="M 105.5,71.5 C 107.948,70.5269 110.615,70.1936 113.5,70.5C 113.5,84.8333 113.5,99.1667 113.5,113.5C 112.513,108.695 112.179,103.695 112.5,98.5C 112.666,89.8269 112.5,81.1603 112,72.5C 109.959,71.5769 107.792,71.2436 105.5,71.5 Z"/></g>
<g><path style="opacity:1" fill="#c86258" d="M 389.5,69.5 C 405.649,70.2286 416.982,77.8953 423.5,92.5C 423.167,92.5 422.833,92.5 422.5,92.5C 418.87,86.8717 414.537,81.8717 409.5,77.5C 406.893,76.6816 404.226,76.1816 401.5,76C 401.833,75.6667 402.167,75.3333 402.5,75C 398.689,73.2613 394.689,72.428 390.5,72.5C 389.653,81.4719 389.32,90.4719 389.5,99.5C 389.899,105.671 389.232,111.671 387.5,117.5C 385.887,121.113 383.22,123.78 379.5,125.5C 379.5,125.167 379.5,124.833 379.5,124.5C 380.833,123.167 382.167,121.833 383.5,120.5C 384.802,118.328 385.968,115.994 387,113.5C 387.5,99.1705 387.667,84.8372 387.5,70.5C 387.842,69.6618 388.508,69.3284 389.5,69.5 Z"/></g>
<g><path style="opacity:1" fill="#051406" d="M 255.5,81.5 C 255.833,81.5 256.167,81.5 256.5,81.5C 257.5,81.5 258.5,81.5 259.5,81.5C 259.169,107.672 259.502,133.672 260.5,159.5C 260.629,161.216 260.962,162.883 261.5,164.5C 261.414,165.496 261.748,166.329 262.5,167C 261.5,167.333 260.5,167.667 259.5,168C 250.324,168.824 241.324,168.657 232.5,167.5C 232.833,167.5 233.167,167.5 233.5,167.5C 237.273,168.178 240.106,166.844 242,163.5C 242.667,141.833 242.667,120.167 242,98.5C 241.617,97.944 241.117,97.6107 240.5,97.5C 238.979,95.3694 238.312,93.2027 238.5,91C 241.823,89.9601 244.823,88.4601 247.5,86.5C 250.167,84.8333 252.833,83.1667 255.5,81.5 Z"/></g>
<g><path style="opacity:1" fill="#bc5144" d="M 255.5,81.5 C 252.833,83.1667 250.167,84.8333 247.5,86.5C 241.443,88.2967 235.443,90.2967 229.5,92.5C 236.189,88.5376 243.189,85.0376 250.5,82C 252.134,81.5065 253.801,81.3398 255.5,81.5 Z"/></g>
<g><path style="opacity:1" fill="#261205" d="M 247.5,86.5 C 244.823,88.4601 241.823,89.9601 238.5,91C 238.312,93.2027 238.979,95.3694 240.5,97.5C 236.66,94.9457 232.993,94.9457 229.5,97.5C 228.5,97.5 227.5,97.5 226.5,97.5C 226.31,95.0411 227.31,93.3745 229.5,92.5C 235.443,90.2967 241.443,88.2967 247.5,86.5 Z"/></g>
<g><path style="opacity:1" fill="#96a4a6" d="M 114.5,89.5 C 126.833,89.5 139.167,89.5 151.5,89.5C 151.5,97.8333 151.5,106.167 151.5,114.5C 148.285,117.553 145.618,121.053 143.5,125C 138.151,126.929 132.818,126.929 127.5,125C 124.833,123.667 122.167,122.333 119.5,121C 118.182,118.176 116.515,115.676 114.5,113.5C 114.5,105.5 114.5,97.5 114.5,89.5 Z"/></g>
<g><path style="opacity:1" fill="#b45142" d="M 260.5,81.5 C 261.167,108.003 261.833,134.67 262.5,161.5C 266.409,163.11 270.076,164.777 273.5,166.5C 271.5,166.5 269.5,166.5 267.5,166.5C 265.297,166.396 263.297,165.73 261.5,164.5C 260.962,162.883 260.629,161.216 260.5,159.5C 260.5,133.5 260.5,107.5 260.5,81.5 Z"/></g>
<g><path style="opacity:1" fill="#96a4a7" d="M 349.5,89.5 C 361.5,89.5 373.5,89.5 385.5,89.5C 386.003,99.9722 385.336,110.306 383.5,120.5C 382.167,121.833 380.833,123.167 379.5,124.5C 375.019,126.382 370.353,126.882 365.5,126C 362.448,124.065 359.115,122.732 355.5,122C 354.023,120.188 352.69,118.355 351.5,116.5C 350.833,115.833 350.167,115.167 349.5,114.5C 349.5,106.167 349.5,97.8333 349.5,89.5 Z"/></g>
<g><path style="opacity:1" fill="#51180c" d="M 256.5,81.5 C 257.833,80.1667 259.167,80.1667 260.5,81.5C 260.5,107.5 260.5,133.5 260.5,159.5C 259.502,133.672 259.169,107.672 259.5,81.5C 258.5,81.5 257.5,81.5 256.5,81.5 Z"/></g>
<g><path style="opacity:1" fill="#ae9c99" d="M 387.5,70.5 C 387.667,84.8372 387.5,99.1705 387,113.5C 385.968,115.994 384.802,118.328 383.5,120.5C 385.336,110.306 386.003,99.9722 385.5,89.5C 386.167,83.1667 386.833,76.8333 387.5,70.5 Z"/></g>
<g><path style="opacity:1" fill="#bf392a" d="M 154.5,72.5 C 154.5,81.8333 154.5,91.1667 154.5,100.5C 155.5,100.5 156.5,100.5 157.5,100.5C 160.059,106.259 161.726,112.426 162.5,119C 162.349,121.197 162.015,123.364 161.5,125.5C 153.247,146.082 138.58,152.582 117.5,145C 104.013,132.565 101.18,118.065 109,101.5C 110.039,100.29 111.206,99.2899 112.5,98.5C 112.179,103.695 112.513,108.695 113.5,113.5C 113.833,113.5 114.167,113.5 114.5,113.5C 119.018,127.493 128.352,131.993 142.5,127C 146.076,124.321 149.076,121.154 151.5,117.5C 152.222,117.082 152.722,116.416 153,115.5C 153.169,100.994 153.669,86.6608 154.5,72.5 Z"/></g>
<g><path style="opacity:1" fill="#d55242" d="M 79.5,89.5 C 79.2321,94.0137 78.3988,98.347 77,102.5C 76.5,130.165 76.3334,157.831 76.5,185.5C 192.167,185.667 307.834,185.5 423.5,185C 424.661,157.905 424.828,130.739 424,103.5C 422.763,99.9399 422.263,96.2733 422.5,92.5C 422.833,92.5 423.167,92.5 423.5,92.5C 425.097,94.8478 426.097,97.5145 426.5,100.5C 426.809,129.198 426.476,157.865 425.5,186.5C 308.833,186.5 192.167,186.5 75.5,186.5C 75.2057,156.146 75.539,125.813 76.5,95.5C 76.7549,93.0326 77.7549,91.0326 79.5,89.5 Z"/></g>
<g><path style="opacity:1" fill="#b4483b" d="M 240.5,97.5 C 241.643,118.123 241.81,138.79 241,159.5C 240.209,160.745 239.709,162.078 239.5,163.5C 235.195,165.089 230.862,166.423 226.5,167.5C 225.662,167.842 225.328,168.508 225.5,169.5C 223.29,168.545 222.957,167.045 224.5,165C 228.152,164.501 231.818,164.335 235.5,164.5C 235.5,163.5 235.5,162.5 235.5,161.5C 236.822,161.67 237.989,161.337 239,160.5C 239.667,139.833 239.667,119.167 239,98.5C 235.943,97.5495 232.777,97.2161 229.5,97.5C 232.993,94.9457 236.66,94.9457 240.5,97.5 Z"/></g>
<g><path style="opacity:1" fill="#bf3829" d="M 346.5,99.5 C 346.928,103.275 346.261,106.775 344.5,110C 345.906,113.108 347.239,116.275 348.5,119.5C 349.417,120.127 350.417,120.461 351.5,120.5C 351.338,122.527 351.505,124.527 352,126.5C 352.333,126.167 352.667,125.833 353,125.5C 355.675,127.158 358.175,128.991 360.5,131C 364.833,131.667 369.167,131.667 373.5,131C 378.263,128.202 382.763,125.036 387,121.5C 387.49,120.207 387.657,118.873 387.5,117.5C 389.232,111.671 389.899,105.671 389.5,99.5C 395.458,104.68 398.125,111.347 397.5,119.5C 395.783,133.363 388.45,142.53 375.5,147C 367.424,148.356 359.757,147.356 352.5,144C 340.086,133.653 336.586,120.82 342,105.5C 342.792,102.894 344.292,100.894 346.5,99.5 Z"/></g>
<g><path style="opacity:1" fill="#210d01" d="M 240.5,97.5 C 241.117,97.6107 241.617,97.944 242,98.5C 242.667,120.167 242.667,141.833 242,163.5C 240.106,166.844 237.273,168.178 233.5,167.5C 236.025,167.023 238.025,165.69 239.5,163.5C 239.709,162.078 240.209,160.745 241,159.5C 241.81,138.79 241.643,118.123 240.5,97.5 Z"/></g>
<g><path style="opacity:1" fill="#a94434" d="M 229.5,92.5 C 227.31,93.3745 226.31,95.0411 226.5,97.5C 227.5,97.5 228.5,97.5 229.5,97.5C 227.416,100.099 225.749,99.5985 224.5,96C 225.207,93.46 226.873,92.2933 229.5,92.5 Z"/></g>
<g><path style="opacity:1" fill="#c9695f" d="M 76.5,95.5 C 75.539,125.813 75.2057,156.146 75.5,186.5C 192.167,186.5 308.833,186.5 425.5,186.5C 426.476,157.865 426.809,129.198 426.5,100.5C 427.498,129.329 427.831,158.329 427.5,187.5C 427.167,187.5 426.833,187.5 426.5,187.5C 309.167,187.5 191.833,187.5 74.5,187.5C 74.5,159.167 74.5,130.833 74.5,102.5C 74.4095,99.8478 75.0762,97.5145 76.5,95.5 Z"/></g>
<g><path style="opacity:1" fill="#7d3125" d="M 267.5,166.5 C 269.5,166.5 271.5,166.5 273.5,166.5C 273.5,167.833 273.5,169.167 273.5,170.5C 257.325,170.83 241.325,170.496 225.5,169.5C 225.328,168.508 225.662,167.842 226.5,167.5C 233.803,168.831 241.47,169.498 249.5,169.5C 257.167,169.167 264.833,168.833 272.5,168.5C 270.709,167.83 269.042,167.163 267.5,166.5 Z"/></g>
<g><path style="opacity:1" fill="#1e0b00" d="M 261.5,164.5 C 263.297,165.73 265.297,166.396 267.5,166.5C 269.042,167.163 270.709,167.83 272.5,168.5C 264.833,168.833 257.167,169.167 249.5,169.5C 241.47,169.498 233.803,168.831 226.5,167.5C 228.5,167.5 230.5,167.5 232.5,167.5C 241.324,168.657 250.324,168.824 259.5,168C 260.5,167.667 261.5,167.333 262.5,167C 261.748,166.329 261.414,165.496 261.5,164.5 Z"/></g>
<g><path style="opacity:1" fill="#713020" d="M 239.5,163.5 C 238.025,165.69 236.025,167.023 233.5,167.5C 233.167,167.5 232.833,167.5 232.5,167.5C 230.5,167.5 228.5,167.5 226.5,167.5C 230.862,166.423 235.195,165.089 239.5,163.5 Z"/></g>
<g><path style="opacity:1" fill="#ac4339" d="M 387.5,117.5 C 387.657,118.873 387.49,120.207 387,121.5C 382.763,125.036 378.263,128.202 373.5,131C 369.167,131.667 364.833,131.667 360.5,131C 358.175,128.991 355.675,127.158 353,125.5C 352.667,125.833 352.333,126.167 352,126.5C 351.505,124.527 351.338,122.527 351.5,120.5C 359.474,129.082 368.807,130.749 379.5,125.5C 383.22,123.78 385.887,121.113 387.5,117.5 Z"/></g>
<g><path style="opacity:1" fill="#ab8f8b" d="M 114.5,113.5 C 116.515,115.676 118.182,118.176 119.5,121C 122.167,122.333 124.833,123.667 127.5,125C 132.818,126.929 138.151,126.929 143.5,125C 145.618,121.053 148.285,117.553 151.5,114.5C 151.5,115.5 151.5,116.5 151.5,117.5C 149.076,121.154 146.076,124.321 142.5,127C 128.352,131.993 119.018,127.493 114.5,113.5 Z"/></g>
<g><path style="opacity:1" fill="#a9908c" d="M 351.5,116.5 C 352.69,118.355 354.023,120.188 355.5,122C 359.115,122.732 362.448,124.065 365.5,126C 370.353,126.882 375.019,126.382 379.5,124.5C 379.5,124.833 379.5,125.167 379.5,125.5C 368.807,130.749 359.474,129.082 351.5,120.5C 351.5,119.167 351.5,117.833 351.5,116.5 Z"/></g>
<g><path style="opacity:1" fill="#eaeeef" d="M 74.5,102.5 C 74.5,130.833 74.5,159.167 74.5,187.5C 75.2625,188.268 76.2625,188.768 77.5,189C 190.167,189.667 302.833,189.667 415.5,189C 419.356,188.823 423.023,188.323 426.5,187.5C 426.833,187.5 427.167,187.5 427.5,187.5C 428.831,258.598 428.831,329.598 427.5,400.5C 427.665,397.482 427.498,394.482 427,391.5C 424.477,396.069 422.143,400.736 420,405.5C 412.693,414.738 403.193,420.238 391.5,422C 296.5,422.667 201.5,422.667 106.5,422C 96.1002,419.387 87.6002,413.887 81,405.5C 78.7684,400.265 76.2684,395.265 73.5,390.5C 73.1672,294.332 73.5006,198.332 74.5,102.5 Z"/></g>
<g><path style="opacity:1" fill="#fbe0e1" d="M 74.5,187.5 C 191.833,187.5 309.167,187.5 426.5,187.5C 423.023,188.323 419.356,188.823 415.5,189C 302.833,189.667 190.167,189.667 77.5,189C 76.2625,188.768 75.2625,188.268 74.5,187.5 Z"/></g>
<g><path style="opacity:1" fill="#080808" d="M 387.5,228.5 C 391.02,235.612 394.687,242.612 398.5,249.5C 398.259,251.898 398.926,253.898 400.5,255.5C 404.321,263.813 407.987,272.146 411.5,280.5C 412.224,283.341 413.39,286.008 415,288.5C 415.498,291.817 415.665,295.15 415.5,298.5C 414.167,298.5 412.833,298.5 411.5,298.5C 404.596,300.485 397.596,302.152 390.5,303.5C 389.9,300.001 389.234,296.501 388.5,293C 388.285,291.092 387.285,289.926 385.5,289.5C 380.289,276.428 375.123,263.428 370,250.5C 368.301,247.079 366.135,244.079 363.5,241.5C 363.759,239.011 362.759,237.344 360.5,236.5C 360.672,235.508 360.338,234.842 359.5,234.5C 355.487,228.487 350.487,223.487 344.5,219.5C 344.414,218.504 344.748,217.671 345.5,217C 350.288,216.109 354.288,213.942 357.5,210.5C 360.522,210.156 363.188,208.989 365.5,207C 367.902,206.186 370.235,206.353 372.5,207.5C 378.735,213.643 383.735,220.643 387.5,228.5 Z"/></g>
<g><path style="opacity:1" fill="#9a9d9f" d="M 251.5,211.5 C 246.797,211.437 242.13,211.771 237.5,212.5C 239.807,210.953 242.473,210.287 245.5,210.5C 247.696,210.505 249.696,210.838 251.5,211.5 Z"/></g>
<g><path style="opacity:1" fill="#030404" d="M 251.5,211.5 C 253.265,212.461 255.265,212.795 257.5,212.5C 257.918,213.222 258.584,213.722 259.5,214C 271.701,215.44 283.701,217.773 295.5,221C 299.486,221.499 303.486,221.666 307.5,221.5C 309.167,222.167 310.833,222.833 312.5,223.5C 312.611,224.117 312.944,224.617 313.5,225C 320.014,225.82 326.347,225.653 332.5,224.5C 332.5,224.167 332.5,223.833 332.5,223.5C 333.833,222.833 335.167,222.167 336.5,221.5C 337.873,221.343 339.207,221.51 340.5,222C 344,224.669 347.333,227.502 350.5,230.5C 353.185,234.845 355.851,239.178 358.5,243.5C 358.755,245.967 359.755,247.967 361.5,249.5C 362.401,250.29 363.068,251.29 363.5,252.5C 363.025,255.313 364.025,257.313 366.5,258.5C 366.527,260.199 367.194,261.533 368.5,262.5C 371.373,271.252 374.54,279.919 378,288.5C 378.902,290.431 380.069,292.097 381.5,293.5C 381.328,294.492 381.662,295.158 382.5,295.5C 382.357,297.262 382.691,298.929 383.5,300.5C 381.289,301.66 379.289,302.993 377.5,304.5C 375.819,306.008 373.819,307.008 371.5,307.5C 366.206,311.127 361.539,315.46 357.5,320.5C 355.702,322.112 353.702,323.612 351.5,325C 350.748,325.671 350.414,326.504 350.5,327.5C 349.292,328.234 347.959,328.567 346.5,328.5C 344.823,325.975 343.323,323.309 342,320.5C 337.386,316.097 332.886,311.597 328.5,307C 325.671,305.644 323.004,304.144 320.5,302.5C 318.596,302.262 317.262,301.262 316.5,299.5C 310.349,294.922 304.015,290.589 297.5,286.5C 294.108,284.135 290.442,282.135 286.5,280.5C 283.899,276.526 280.233,274.026 275.5,273C 272.187,268.557 267.854,265.557 262.5,264C 260.248,261.898 257.915,260.064 255.5,258.5C 253.025,255.759 250.025,253.759 246.5,252.5C 243.782,250.14 240.782,248.14 237.5,246.5C 235.167,246.5 232.833,246.5 230.5,246.5C 224.162,246.431 218.495,248.098 213.5,251.5C 211.073,251.523 208.74,252.023 206.5,253C 202.263,257.266 197.597,260.933 192.5,264C 186.833,266.326 181.167,268.493 175.5,270.5C 169.483,271.004 163.816,270.004 158.5,267.5C 158.107,264.487 158.774,261.82 160.5,259.5C 160.5,258.833 160.833,258.5 161.5,258.5C 164.5,256.167 167.167,253.5 169.5,250.5C 169.5,250.167 169.5,249.833 169.5,249.5C 170.833,248.833 171.833,247.833 172.5,246.5C 177.511,242.816 182.178,238.816 186.5,234.5C 188.749,233.92 190.415,232.587 191.5,230.5C 192.5,230.167 193.167,229.5 193.5,228.5C 198.039,228.375 202.039,227.042 205.5,224.5C 208.018,223.736 210.351,222.736 212.5,221.5C 214.703,221.396 216.703,220.73 218.5,219.5C 222.332,219.118 225.665,217.785 228.5,215.5C 231.785,215.072 234.785,214.072 237.5,212.5C 242.13,211.771 246.797,211.437 251.5,211.5 Z"/></g>
<g><path style="opacity:1" fill="#949697" d="M 237.5,212.5 C 234.785,214.072 231.785,215.072 228.5,215.5C 231.008,213.446 234.008,212.446 237.5,212.5 Z"/></g>
<g><path style="opacity:1" fill="#5d5e5f" d="M 357.5,210.5 C 354.288,213.942 350.288,216.109 345.5,217C 344.748,217.671 344.414,218.504 344.5,219.5C 343.167,219.5 342.5,218.833 342.5,217.5C 347.344,214.912 352.344,212.579 357.5,210.5 Z"/></g>
<g><path style="opacity:1" fill="#999a9b" d="M 257.5,212.5 C 271.512,214.502 285.512,216.669 299.5,219C 302.251,219.943 304.917,220.776 307.5,221.5C 303.486,221.666 299.486,221.499 295.5,221C 283.701,217.773 271.701,215.44 259.5,214C 258.584,213.722 257.918,213.222 257.5,212.5 Z"/></g>
<g><path style="opacity:1" fill="#787c7b" d="M 228.5,215.5 C 225.665,217.785 222.332,219.118 218.5,219.5C 218.611,218.883 218.944,218.383 219.5,218C 222.445,216.869 225.445,216.036 228.5,215.5 Z"/></g>
<g><path style="opacity:1" fill="#b1b3b4" d="M 342.5,217.5 C 342.5,218.833 343.167,219.5 344.5,219.5C 350.487,223.487 355.487,228.487 359.5,234.5C 356.187,231.522 352.853,228.522 349.5,225.5C 349.167,225.833 348.833,226.167 348.5,226.5C 349.63,227.622 350.297,228.956 350.5,230.5C 347.333,227.502 344,224.669 340.5,222C 339.207,221.51 337.873,221.343 336.5,221.5C 337.919,220.549 339.585,220.216 341.5,220.5C 341.263,219.209 341.596,218.209 342.5,217.5 Z"/></g>
<g><path style="opacity:1" fill="#6f7070" d="M 212.5,221.5 C 210.351,222.736 208.018,223.736 205.5,224.5C 207.09,222.179 209.423,221.179 212.5,221.5 Z"/></g>
<g><path style="opacity:1" fill="#abadad" d="M 307.5,221.5 C 315.783,222.689 324.116,223.356 332.5,223.5C 332.5,223.833 332.5,224.167 332.5,224.5C 325.798,224.664 319.131,224.331 312.5,223.5C 310.833,222.833 309.167,222.167 307.5,221.5 Z"/></g>
<g><path style="opacity:1" fill="#565958" d="M 120.5,225.5 C 120.5,225.833 120.5,226.167 120.5,226.5C 117.624,226.073 114.791,225.406 112,224.5C 111.098,224.743 110.265,225.077 109.5,225.5C 109.418,223.748 110.251,222.748 112,222.5C 114.744,223.803 117.577,224.803 120.5,225.5 Z"/></g>
<g><path style="opacity:1" fill="#444444" d="M 312.5,223.5 C 319.131,224.331 325.798,224.664 332.5,224.5C 326.347,225.653 320.014,225.82 313.5,225C 312.944,224.617 312.611,224.117 312.5,223.5 Z"/></g>
<g><path style="opacity:1" fill="#060606" d="M 120.5,226.5 C 126.585,228.022 132.585,229.855 138.5,232C 140.037,233.11 140.703,234.61 140.5,236.5C 137.099,242.218 135.432,248.551 135.5,255.5C 133.341,261.258 131.674,267.258 130.5,273.5C 126.75,285.156 124.083,297.156 122.5,309.5C 122.5,310.167 122.5,310.833 122.5,311.5C 120.564,315.715 119.897,320.381 120.5,325.5C 107.492,324.082 94.4925,322.416 81.5,320.5C 81.5,319.167 81.5,317.833 81.5,316.5C 83.5438,309.385 85.5438,302.385 87.5,295.5C 91.2883,285.359 94.6216,275.025 97.5,264.5C 100.203,260.718 101.536,256.385 101.5,251.5C 103.991,245.443 105.991,239.11 107.5,232.5C 108.924,230.485 109.59,228.152 109.5,225.5C 110.265,225.077 111.098,224.743 112,224.5C 114.791,225.406 117.624,226.073 120.5,226.5 Z"/></g>
<g><path style="opacity:1" fill="#525354" d="M 205.5,224.5 C 202.039,227.042 198.039,228.375 193.5,228.5C 196.899,225.803 200.899,224.47 205.5,224.5 Z"/></g>
<g><path style="opacity:1" fill="#606261" d="M 109.5,225.5 C 109.59,228.152 108.924,230.485 107.5,232.5C 107.5,231.833 107.5,231.167 107.5,230.5C 107.796,228.597 108.463,226.93 109.5,225.5 Z"/></g>
<g><path style="opacity:1" fill="#a6a8a9" d="M 387.5,228.5 C 390.078,229.775 391.911,231.775 393,234.5C 395.401,239.3 397.234,244.3 398.5,249.5C 394.687,242.612 391.02,235.612 387.5,228.5 Z"/></g>
<g><path style="opacity:1" fill="#5d5e60" d="M 191.5,230.5 C 190.415,232.587 188.749,233.92 186.5,234.5C 187.585,232.413 189.251,231.08 191.5,230.5 Z"/></g>
<g><path style="opacity:1" fill="#7f8382" d="M 360.5,236.5 C 362.759,237.344 363.759,239.011 363.5,241.5C 362.11,240.101 361.11,238.434 360.5,236.5 Z"/></g>
<g><path style="opacity:1" fill="#030303" d="M 156.5,241.5 C 160.634,242.485 164.968,242.818 169.5,242.5C 169.759,245.48 168.426,247.313 165.5,248C 164.177,248.816 163.511,249.983 163.5,251.5C 159.598,253.893 156.098,256.893 153,260.5C 151.773,266.877 153.939,271.71 159.5,275C 164.167,275.667 168.833,275.667 173.5,275C 174.416,274.722 175.082,274.222 175.5,273.5C 176.833,273.5 178.167,273.5 179.5,273.5C 188.685,270.237 197.018,265.404 204.5,259C 207.476,258.295 210.142,257.129 212.5,255.5C 215.484,254.183 218.484,253.183 221.5,252.5C 226.88,252.324 232.213,252.658 237.5,253.5C 246.101,259.712 255.101,265.379 264.5,270.5C 265.27,272.935 266.937,274.269 269.5,274.5C 270.401,276.727 272.067,277.727 274.5,277.5C 275.585,279.587 277.251,280.92 279.5,281.5C 284.753,285.709 290.42,289.376 296.5,292.5C 296.833,292.5 297.167,292.5 297.5,292.5C 301.318,296.979 305.984,300.312 311.5,302.5C 314.167,304.167 316.833,305.833 319.5,307.5C 321.12,309.984 323.453,311.484 326.5,312C 330.763,316.42 334.763,320.92 338.5,325.5C 338.5,325.833 338.5,326.167 338.5,326.5C 338.733,328.062 339.4,329.395 340.5,330.5C 341.954,337.222 341.788,343.888 340,350.5C 336.568,355.627 331.734,357.627 325.5,356.5C 323.544,355.508 321.544,354.508 319.5,353.5C 317.5,352.5 315.5,351.5 313.5,350.5C 309.737,346.776 305.403,343.776 300.5,341.5C 297.81,338.815 294.81,336.482 291.5,334.5C 289.941,332.376 287.941,330.709 285.5,329.5C 284.068,329.733 283.568,330.4 284,331.5C 285.774,332.965 287.608,334.298 289.5,335.5C 292.233,338.239 295.233,340.573 298.5,342.5C 300.388,345.899 302.888,348.899 306,351.5C 307.128,353.345 307.628,355.345 307.5,357.5C 308.69,362.477 308.69,367.477 307.5,372.5C 307.5,372.833 307.5,373.167 307.5,373.5C 304.71,376.113 301.71,378.613 298.5,381C 294.514,381.499 290.514,381.666 286.5,381.5C 284.95,379.378 282.95,377.711 280.5,376.5C 279.211,375.363 278.211,374.03 277.5,372.5C 276.089,370.086 274.089,368.419 271.5,367.5C 268.666,365.498 266.333,362.998 264.5,360C 262.473,358.121 260.14,356.954 257.5,356.5C 257.263,357.791 257.596,358.791 258.5,359.5C 260.5,363.5 263.5,366.5 267.5,368.5C 271.839,372.469 275.839,376.802 279.5,381.5C 281.602,385.154 281.935,388.987 280.5,393C 275.466,395.423 270.133,396.089 264.5,395C 263.211,393.198 261.544,392.031 259.5,391.5C 259.167,391.5 258.833,391.5 258.5,391.5C 257.415,389.413 255.749,388.08 253.5,387.5C 250.759,386.561 248.759,384.727 247.5,382C 243.037,379.266 238.37,376.766 233.5,374.5C 232.713,372.896 231.38,372.229 229.5,372.5C 229.324,376.192 230.991,378.192 234.5,378.5C 241.563,383.025 248.229,388.025 254.5,393.5C 254.66,395.199 254.494,396.866 254,398.5C 252.141,399.579 250.641,400.912 249.5,402.5C 249.167,402.5 248.833,402.5 248.5,402.5C 245.15,402.665 241.817,402.498 238.5,402C 237.529,400.519 236.196,399.685 234.5,399.5C 233.833,399.5 233.167,399.5 232.5,399.5C 229.887,395.957 226.553,393.29 222.5,391.5C 219.09,387.076 215.424,382.91 211.5,379C 209.19,378.503 206.857,378.337 204.5,378.5C 206.773,372.55 206.94,366.55 205,360.5C 204.617,359.944 204.117,359.611 203.5,359.5C 203.167,358.5 202.5,357.833 201.5,357.5C 199.68,355.552 197.346,354.552 194.5,354.5C 193.054,353.06 191.221,352.393 189,352.5C 186.502,352.917 184.002,353.251 181.5,353.5C 181.453,348.827 179.453,345.494 175.5,343.5C 174.167,342.833 172.833,342.167 171.5,341.5C 167.981,340.192 164.315,340.192 160.5,341.5C 159.807,342.518 159.141,343.518 158.5,344.5C 156.718,345.72 154.718,346.386 152.5,346.5C 147.179,342.851 141.846,339.185 136.5,335.5C 134.194,333.861 132.194,331.861 130.5,329.5C 128.628,327.955 127.628,325.955 127.5,323.5C 128.933,316.878 129.933,310.211 130.5,303.5C 130.5,302.833 130.5,302.167 130.5,301.5C 132.074,299.898 132.741,297.898 132.5,295.5C 132.704,292.482 133.037,289.482 133.5,286.5C 135.814,281.872 137.147,276.872 137.5,271.5C 138.924,269.485 139.59,267.152 139.5,264.5C 139.5,263.5 139.5,262.5 139.5,261.5C 142.367,254.545 144.367,247.211 145.5,239.5C 149.651,237.913 153.317,238.58 156.5,241.5 Z"/></g>
<g><path style="opacity:1" fill="#999c9b" d="M 186.5,234.5 C 182.178,238.816 177.511,242.816 172.5,246.5C 171.624,246.631 170.957,246.298 170.5,245.5C 171.246,244.264 171.579,242.93 171.5,241.5C 166.5,241.5 161.5,241.5 156.5,241.5C 153.317,238.58 149.651,237.913 145.5,239.5C 145.685,237.11 147.018,236.11 149.5,236.5C 152.92,237.374 156.253,238.541 159.5,240C 163.833,240.333 168.167,240.667 172.5,241C 173.047,241.925 173.713,242.758 174.5,243.5C 178.24,239.983 182.24,236.983 186.5,234.5 Z"/></g>
<g><path style="opacity:1" fill="#8c8e8e" d="M 107.5,230.5 C 107.5,231.167 107.5,231.833 107.5,232.5C 105.991,239.11 103.991,245.443 101.5,251.5C 102.47,245.817 103.637,240.15 105,234.5C 105.2,232.68 106.034,231.347 107.5,230.5 Z"/></g>
<g><path style="opacity:1" fill="#717372" d="M 156.5,241.5 C 161.5,241.5 166.5,241.5 171.5,241.5C 171.579,242.93 171.246,244.264 170.5,245.5C 170.957,246.298 171.624,246.631 172.5,246.5C 171.833,247.833 170.833,248.833 169.5,249.5C 169.631,248.761 169.464,248.094 169,247.5C 167.008,248.665 165.175,249.998 163.5,251.5C 163.511,249.983 164.177,248.816 165.5,248C 168.426,247.313 169.759,245.48 169.5,242.5C 164.968,242.818 160.634,242.485 156.5,241.5 Z"/></g>
<g><path style="opacity:1" fill="#6c6f6e" d="M 237.5,246.5 C 240.782,248.14 243.782,250.14 246.5,252.5C 243.144,251.389 240.144,249.723 237.5,247.5C 237.5,247.167 237.5,246.833 237.5,246.5 Z"/></g>
<g><path style="opacity:1" fill="#525354" d="M 358.5,243.5 C 360.245,245.033 361.245,247.033 361.5,249.5C 359.755,247.967 358.755,245.967 358.5,243.5 Z"/></g>
<g><path style="opacity:1" fill="#4a4b4d" d="M 140.5,236.5 C 139.656,243.146 137.989,249.48 135.5,255.5C 135.432,248.551 137.099,242.218 140.5,236.5 Z"/></g>
<g><path style="opacity:1" fill="#747677" d="M 230.5,246.5 C 224.885,248.057 219.219,249.723 213.5,251.5C 218.495,248.098 224.162,246.431 230.5,246.5 Z"/></g>
<g><path style="opacity:1" fill="#494b4a" d="M 221.5,252.5 C 226.305,251.513 231.305,251.179 236.5,251.5C 236.833,252.167 237.167,252.833 237.5,253.5C 232.213,252.658 226.88,252.324 221.5,252.5 Z"/></g>
<g><path style="opacity:1" fill="#767778" d="M 145.5,239.5 C 144.367,247.211 142.367,254.545 139.5,261.5C 140.541,254.428 141.874,247.428 143.5,240.5C 144.167,240.167 144.833,239.833 145.5,239.5 Z"/></g>
<g><path style="opacity:1" fill="#dadddd" d="M 237.5,247.5 C 240.144,249.723 243.144,251.389 246.5,252.5C 247.167,254.5 248.5,255.833 250.5,256.5C 250.649,257.552 250.483,258.552 250,259.5C 246.918,258.091 244.085,256.258 241.5,254C 240.207,253.51 238.873,253.343 237.5,253.5C 237.167,252.833 236.833,252.167 236.5,251.5C 225.647,249.398 225.98,248.065 237.5,247.5 Z"/></g>
<g><path style="opacity:1" fill="#616262" d="M 398.5,249.5 C 400.074,251.102 400.741,253.102 400.5,255.5C 398.926,253.898 398.259,251.898 398.5,249.5 Z"/></g>
<g><path style="opacity:1" fill="#6d6f70" d="M 163.5,251.5 C 160.871,254.631 158.038,257.631 155,260.5C 153.213,267.014 155.38,271.514 161.5,274C 166.204,274.648 170.871,274.481 175.5,273.5C 175.082,274.222 174.416,274.722 173.5,275C 168.833,275.667 164.167,275.667 159.5,275C 153.939,271.71 151.773,266.877 153,260.5C 156.098,256.893 159.598,253.893 163.5,251.5 Z"/></g>
<g><path style="opacity:1" fill="#4d4d4d" d="M 169.5,250.5 C 167.167,253.5 164.5,256.167 161.5,258.5C 163.167,254.833 165.833,252.167 169.5,250.5 Z"/></g>
<g><path style="opacity:1" fill="#bcbdbf" d="M 230.5,246.5 C 232.833,246.5 235.167,246.5 237.5,246.5C 237.5,246.833 237.5,247.167 237.5,247.5C 225.98,248.065 225.647,249.398 236.5,251.5C 231.305,251.179 226.305,251.513 221.5,252.5C 218.484,253.183 215.484,254.183 212.5,255.5C 210.401,256.231 208.401,256.231 206.5,255.5C 208.643,253.79 210.977,252.457 213.5,251.5C 219.219,249.723 224.885,248.057 230.5,246.5 Z"/></g>
<g><path style="opacity:1" fill="#616363" d="M 246.5,252.5 C 250.025,253.759 253.025,255.759 255.5,258.5C 253.833,257.833 252.167,257.167 250.5,256.5C 248.5,255.833 247.167,254.5 246.5,252.5 Z"/></g>
<g><path style="opacity:1" fill="#4c4e4e" d="M 363.5,252.5 C 365.245,254.033 366.245,256.033 366.5,258.5C 364.025,257.313 363.025,255.313 363.5,252.5 Z"/></g>
<g><path style="opacity:1" fill="#7c7e7d" d="M 213.5,251.5 C 210.977,252.457 208.643,253.79 206.5,255.5C 208.401,256.231 210.401,256.231 212.5,255.5C 210.142,257.129 207.476,258.295 204.5,259C 197.018,265.404 188.685,270.237 179.5,273.5C 179.414,272.504 179.748,271.671 180.5,271C 178.866,270.506 177.199,270.34 175.5,270.5C 181.167,268.493 186.833,266.326 192.5,264C 197.597,260.933 202.263,257.266 206.5,253C 208.74,252.023 211.073,251.523 213.5,251.5 Z"/></g>
<g><path style="opacity:1" fill="#939697" d="M 135.5,255.5 C 135.419,260.617 134.586,265.617 133,270.5C 132.148,271.571 131.315,272.571 130.5,273.5C 131.674,267.258 133.341,261.258 135.5,255.5 Z"/></g>
<g><path style="opacity:1" fill="#535555" d="M 101.5,251.5 C 101.536,256.385 100.203,260.718 97.5,264.5C 98.1667,261.5 98.8333,258.5 99.5,255.5C 100.167,254.167 100.833,252.833 101.5,251.5 Z"/></g>
<g><path style="opacity:1" fill="#c8cacb" d="M 169.5,249.5 C 169.5,249.833 169.5,250.167 169.5,250.5C 165.833,252.167 163.167,254.833 161.5,258.5C 160.833,258.5 160.5,258.833 160.5,259.5C 159.504,259.414 158.671,259.748 158,260.5C 157.503,263.146 157.336,265.813 157.5,268.5C 159.783,268.608 161.783,269.441 163.5,271C 167.689,271.812 171.689,271.645 175.5,270.5C 177.199,270.34 178.866,270.506 180.5,271C 179.748,271.671 179.414,272.504 179.5,273.5C 178.167,273.5 176.833,273.5 175.5,273.5C 170.871,274.481 166.204,274.648 161.5,274C 155.38,271.514 153.213,267.014 155,260.5C 158.038,257.631 160.871,254.631 163.5,251.5C 165.175,249.998 167.008,248.665 169,247.5C 169.464,248.094 169.631,248.761 169.5,249.5 Z"/></g>
<g><path style="opacity:1" fill="#9c9fa0" d="M 400.5,255.5 C 406.498,262.648 410.165,270.982 411.5,280.5C 407.987,272.146 404.321,263.813 400.5,255.5 Z"/></g>
<g><path style="opacity:1" fill="#535454" d="M 368.5,262.5 C 374.178,272.181 378.511,282.514 381.5,293.5C 380.069,292.097 378.902,290.431 378,288.5C 374.54,279.919 371.373,271.252 368.5,262.5 Z"/></g>
<g><path style="opacity:1" fill="#525353" d="M 160.5,259.5 C 158.774,261.82 158.107,264.487 158.5,267.5C 163.816,270.004 169.483,271.004 175.5,270.5C 171.689,271.645 167.689,271.812 163.5,271C 161.783,269.441 159.783,268.608 157.5,268.5C 157.336,265.813 157.503,263.146 158,260.5C 158.671,259.748 159.504,259.414 160.5,259.5 Z"/></g>
<g><path style="opacity:1" fill="#4c4d4f" d="M 139.5,264.5 C 139.59,267.152 138.924,269.485 137.5,271.5C 137.41,268.848 138.076,266.515 139.5,264.5 Z"/></g>
<g><path style="opacity:1" fill="#818282" d="M 264.5,270.5 C 266.795,271.136 268.461,272.469 269.5,274.5C 266.937,274.269 265.27,272.935 264.5,270.5 Z"/></g>
<g><path style="opacity:1" fill="#cacccd" d="M 359.5,234.5 C 360.338,234.842 360.672,235.508 360.5,236.5C 361.11,238.434 362.11,240.101 363.5,241.5C 366.135,244.079 368.301,247.079 370,250.5C 375.123,263.428 380.289,276.428 385.5,289.5C 386.75,292.006 387.416,294.673 387.5,297.5C 386.685,296.571 385.852,295.571 385,294.5C 384.517,295.448 384.351,296.448 384.5,297.5C 383.833,296.833 383.167,296.167 382.5,295.5C 381.662,295.158 381.328,294.492 381.5,293.5C 378.511,282.514 374.178,272.181 368.5,262.5C 367.194,261.533 366.527,260.199 366.5,258.5C 366.245,256.033 365.245,254.033 363.5,252.5C 363.068,251.29 362.401,250.29 361.5,249.5C 361.245,247.033 360.245,245.033 358.5,243.5C 355.851,239.178 353.185,234.845 350.5,230.5C 350.297,228.956 349.63,227.622 348.5,226.5C 348.833,226.167 349.167,225.833 349.5,225.5C 352.853,228.522 356.187,231.522 359.5,234.5 Z"/></g>
<g><path style="opacity:1" fill="#c9cbcc" d="M 99.5,255.5 C 98.8333,258.5 98.1667,261.5 97.5,264.5C 94.6216,275.025 91.2883,285.359 87.5,295.5C 88.3903,290.219 89.3903,284.886 90.5,279.5C 89.5153,277.902 89.3486,276.235 90,274.5C 90.3333,275.167 90.6667,275.833 91,276.5C 93.5432,269.953 95.8765,263.286 98,256.5C 98.3826,255.944 98.8826,255.611 99.5,255.5 Z"/></g>
<g><path style="opacity:1" fill="#b8baba" d="M 237.5,253.5 C 238.873,253.343 240.207,253.51 241.5,254C 244.085,256.258 246.918,258.091 250,259.5C 250.483,258.552 250.649,257.552 250.5,256.5C 252.167,257.167 253.833,257.833 255.5,258.5C 257.915,260.064 260.248,261.898 262.5,264C 267.854,265.557 272.187,268.557 275.5,273C 280.233,274.026 283.899,276.526 286.5,280.5C 283.903,279.416 281.403,278.082 279,276.5C 278.333,277.167 278.333,277.833 279,278.5C 283.271,283.28 288.437,286.613 294.5,288.5C 295.18,289.86 295.847,291.193 296.5,292.5C 290.42,289.376 284.753,285.709 279.5,281.5C 278.415,279.413 276.749,278.08 274.5,277.5C 272.067,277.727 270.401,276.727 269.5,274.5C 268.461,272.469 266.795,271.136 264.5,270.5C 255.101,265.379 246.101,259.712 237.5,253.5 Z"/></g>
<g><path style="opacity:1" fill="#6e706f" d="M 274.5,277.5 C 276.749,278.08 278.415,279.413 279.5,281.5C 277.251,280.92 275.585,279.587 274.5,277.5 Z"/></g>
<g><path style="opacity:1" fill="#8b8d8e" d="M 137.5,271.5 C 137.147,276.872 135.814,281.872 133.5,286.5C 133.338,284.473 133.505,282.473 134,280.5C 134.956,277.353 136.123,274.353 137.5,271.5 Z"/></g>
<g><path style="opacity:1" fill="#909291" d="M 297.5,286.5 C 304.015,290.589 310.349,294.922 316.5,299.5C 314.345,299.628 312.345,299.128 310.5,298C 305.998,294.33 301.665,290.497 297.5,286.5 Z"/></g>
<g><path style="opacity:1" fill="#838685" d="M 297.5,292.5 C 301.283,294.445 304.949,296.611 308.5,299C 309.71,300.039 310.71,301.206 311.5,302.5C 305.984,300.312 301.318,296.979 297.5,292.5 Z"/></g>
<g><path style="opacity:1" fill="#8c8f8f" d="M 130.5,273.5 C 129.225,285.948 126.558,297.948 122.5,309.5C 124.083,297.156 126.75,285.156 130.5,273.5 Z"/></g>
<g><path style="opacity:1" fill="#6a6d6f" d="M 132.5,295.5 C 132.741,297.898 132.074,299.898 130.5,301.5C 130.259,299.102 130.926,297.102 132.5,295.5 Z"/></g>
<g><path style="opacity:1" fill="#575a5a" d="M 382.5,295.5 C 383.167,296.167 383.833,296.833 384.5,297.5C 384.732,302.243 382.398,304.576 377.5,304.5C 379.289,302.993 381.289,301.66 383.5,300.5C 382.691,298.929 382.357,297.262 382.5,295.5 Z"/></g>
<g><path style="opacity:1" fill="#d2d5d4" d="M 286.5,280.5 C 290.442,282.135 294.108,284.135 297.5,286.5C 301.665,290.497 305.998,294.33 310.5,298C 312.345,299.128 314.345,299.628 316.5,299.5C 317.262,301.262 318.596,302.262 320.5,302.5C 322.026,305.176 324.36,307.009 327.5,308C 324.843,308.175 322.176,308.008 319.5,307.5C 316.833,305.833 314.167,304.167 311.5,302.5C 310.71,301.206 309.71,300.039 308.5,299C 304.949,296.611 301.283,294.445 297.5,292.5C 297.167,292.5 296.833,292.5 296.5,292.5C 295.847,291.193 295.18,289.86 294.5,288.5C 288.437,286.613 283.271,283.28 279,278.5C 278.333,277.833 278.333,277.167 279,276.5C 281.403,278.082 283.903,279.416 286.5,280.5 Z"/></g>
<g><path style="opacity:1" fill="#4c4e4f" d="M 385.5,289.5 C 387.285,289.926 388.285,291.092 388.5,293C 389.234,296.501 389.9,300.001 390.5,303.5C 397.596,302.152 404.596,300.485 411.5,298.5C 409.142,300.129 406.476,301.295 403.5,302C 398.874,303.152 394.207,303.985 389.5,304.5C 389.279,301.933 388.612,299.599 387.5,297.5C 387.416,294.673 386.75,292.006 385.5,289.5 Z"/></g>
<g><path style="opacity:1" fill="#dbdedf" d="M 120.5,226.5 C 120.5,226.167 120.5,225.833 120.5,225.5C 128.181,225.273 135.181,227.106 141.5,231C 142.132,234.27 142.799,237.437 143.5,240.5C 141.874,247.428 140.541,254.428 139.5,261.5C 139.5,262.5 139.5,263.5 139.5,264.5C 138.076,266.515 137.41,268.848 137.5,271.5C 136.123,274.353 134.956,277.353 134,280.5C 133.505,282.473 133.338,284.473 133.5,286.5C 133.037,289.482 132.704,292.482 132.5,295.5C 130.926,297.102 130.259,299.102 130.5,301.5C 130.5,302.167 130.5,302.833 130.5,303.5C 127.812,311.144 126.646,319.144 127,327.5C 127.816,328.823 128.983,329.489 130.5,329.5C 132.194,331.861 134.194,333.861 136.5,335.5C 136.631,336.239 136.464,336.906 136,337.5C 134.057,336.193 132.223,336.193 130.5,337.5C 129.566,338.568 129.232,339.901 129.5,341.5C 129.167,341.5 128.833,341.5 128.5,341.5C 128.342,338.639 129.008,335.972 130.5,333.5C 129.884,331.279 128.717,330.612 127,331.5C 125.667,330.167 124.333,328.833 123,327.5C 122.667,328.167 122.333,328.833 122,329.5C 119.244,328.93 116.744,327.93 114.5,326.5C 116.833,326.5 119.167,326.5 121.5,326.5C 121.413,321.463 121.746,316.463 122.5,311.5C 122.5,310.833 122.5,310.167 122.5,309.5C 126.558,297.948 129.225,285.948 130.5,273.5C 131.315,272.571 132.148,271.571 133,270.5C 134.586,265.617 135.419,260.617 135.5,255.5C 137.989,249.48 139.656,243.146 140.5,236.5C 140.703,234.61 140.037,233.11 138.5,232C 132.585,229.855 126.585,228.022 120.5,226.5 Z"/></g>
<g><path style="opacity:1" fill="#b9bbbb" d="M 320.5,302.5 C 323.004,304.144 325.671,305.644 328.5,307C 332.886,311.597 337.386,316.097 342,320.5C 343.323,323.309 344.823,325.975 346.5,328.5C 343.804,326.801 341.804,324.467 340.5,321.5C 339.675,320.614 338.675,320.281 337.5,320.5C 337.629,322.216 337.962,323.883 338.5,325.5C 334.763,320.92 330.763,316.42 326.5,312C 323.453,311.484 321.12,309.984 319.5,307.5C 322.176,308.008 324.843,308.175 327.5,308C 324.36,307.009 322.026,305.176 320.5,302.5 Z"/></g>
<g><path style="opacity:1" fill="#4c4f4e" d="M 130.5,303.5 C 129.933,310.211 128.933,316.878 127.5,323.5C 127.628,325.955 128.628,327.955 130.5,329.5C 128.983,329.489 127.816,328.823 127,327.5C 126.646,319.144 127.812,311.144 130.5,303.5 Z"/></g>
<g><path style="opacity:1" fill="#696b6b" d="M 371.5,307.5 C 367.487,312.512 362.821,316.845 357.5,320.5C 361.539,315.46 366.206,311.127 371.5,307.5 Z"/></g>
<g><path style="opacity:1" fill="#777b7c" d="M 357.5,320.5 C 356.167,323.833 353.833,326.167 350.5,327.5C 350.414,326.504 350.748,325.671 351.5,325C 353.702,323.612 355.702,322.112 357.5,320.5 Z"/></g>
<g><path style="opacity:1" fill="#8c8f8f" d="M 122.5,311.5 C 121.746,316.463 121.413,321.463 121.5,326.5C 119.167,326.5 116.833,326.5 114.5,326.5C 103.064,324.973 91.7307,323.306 80.5,321.5C 80.2155,319.585 80.5489,317.919 81.5,316.5C 81.5,317.833 81.5,319.167 81.5,320.5C 94.4925,322.416 107.492,324.082 120.5,325.5C 119.897,320.381 120.564,315.715 122.5,311.5 Z"/></g>
<g><path style="opacity:1" fill="#3b3b3b" d="M 291.5,334.5 C 290.508,334.328 289.842,334.662 289.5,335.5C 287.608,334.298 285.774,332.965 284,331.5C 283.568,330.4 284.068,329.733 285.5,329.5C 287.941,330.709 289.941,332.376 291.5,334.5 Z"/></g>
<g><path style="opacity:1" fill="#7e7f7e" d="M 289.5,335.5 C 289.842,334.662 290.508,334.328 291.5,334.5C 294.81,336.482 297.81,338.815 300.5,341.5C 299.508,341.328 298.842,341.662 298.5,342.5C 295.233,340.573 292.233,338.239 289.5,335.5 Z"/></g>
<g><path style="opacity:1" fill="#323333" d="M 340.5,330.5 C 343.054,334.69 344.054,339.357 343.5,344.5C 341.585,355.102 335.585,359.102 325.5,356.5C 331.734,357.627 336.568,355.627 340,350.5C 341.788,343.888 341.954,337.222 340.5,330.5 Z"/></g>
<g><path style="opacity:1" fill="#808283" d="M 338.5,326.5 C 344.404,331.285 346.071,337.285 343.5,344.5C 344.054,339.357 343.054,334.69 340.5,330.5C 339.4,329.395 338.733,328.062 338.5,326.5 Z"/></g>
<g><path style="opacity:1" fill="#0c0d0d" d="M 130.5,337.5 C 132.308,337.491 133.975,337.991 135.5,339C 140.661,342.666 145.661,346.499 150.5,350.5C 150.713,353.451 150.046,356.118 148.5,358.5C 148.5,358.833 148.5,359.167 148.5,359.5C 147.167,359.5 145.833,359.5 144.5,359.5C 141.813,359.664 139.146,359.497 136.5,359C 134.595,357.579 132.595,356.412 130.5,355.5C 130.672,354.508 130.338,353.842 129.5,353.5C 129.5,349.5 129.5,345.5 129.5,341.5C 129.232,339.901 129.566,338.568 130.5,337.5 Z"/></g>
<g><path style="opacity:1" fill="#7e8180" d="M 171.5,341.5 C 166.784,341.121 162.45,342.121 158.5,344.5C 159.141,343.518 159.807,342.518 160.5,341.5C 164.315,340.192 167.981,340.192 171.5,341.5 Z"/></g>
<g><path style="opacity:1" fill="#d6d9d8" d="M 171.5,341.5 C 172.833,342.167 174.167,342.833 175.5,343.5C 177.779,345.723 178.612,348.389 178,351.5C 175.674,348.989 172.841,347.656 169.5,347.5C 166.713,346.523 163.713,346.19 160.5,346.5C 159.167,346.5 158.5,345.833 158.5,344.5C 162.45,342.121 166.784,341.121 171.5,341.5 Z"/></g>
<g><path style="opacity:1" fill="#878a8b" d="M 158.5,344.5 C 158.5,345.833 159.167,346.5 160.5,346.5C 159.066,349.047 157.4,351.381 155.5,353.5C 155.33,352.178 155.663,351.011 156.5,350C 154.676,349.34 153.343,348.173 152.5,346.5C 154.718,346.386 156.718,345.72 158.5,344.5 Z"/></g>
<g><path style="opacity:1" fill="#7c7d7d" d="M 128.5,341.5 C 128.833,341.5 129.167,341.5 129.5,341.5C 129.5,345.5 129.5,349.5 129.5,353.5C 127.221,349.779 126.888,345.779 128.5,341.5 Z"/></g>
<g><path style="opacity:1" fill="#0b0b0b" d="M 160.5,346.5 C 163.713,346.19 166.713,346.523 169.5,347.5C 176.007,350.272 178.34,355.272 176.5,362.5C 174.971,365.754 173.638,369.087 172.5,372.5C 168.738,376.368 164.072,378.034 158.5,377.5C 156.938,377.267 155.605,376.6 154.5,375.5C 150.252,367.914 150.585,360.581 155.5,353.5C 157.4,351.381 159.066,349.047 160.5,346.5 Z"/></g>
<g><path style="opacity:1" fill="#989b9a" d="M 175.5,343.5 C 179.453,345.494 181.453,348.827 181.5,353.5C 184.002,353.251 186.502,352.917 189,352.5C 191.221,352.393 193.054,353.06 194.5,354.5C 190.61,354.272 186.776,354.606 183,355.5C 181.416,355.012 180.249,354.012 179.5,352.5C 178.987,356.121 177.987,359.454 176.5,362.5C 178.34,355.272 176.007,350.272 169.5,347.5C 172.841,347.656 175.674,348.989 178,351.5C 178.612,348.389 177.779,345.723 175.5,343.5 Z"/></g>
<g><path style="opacity:1" fill="#b5b8b7" d="M 300.5,341.5 C 305.403,343.776 309.737,346.776 313.5,350.5C 311.307,349.32 308.974,348.32 306.5,347.5C 306.167,347.833 305.833,348.167 305.5,348.5C 310.226,354.487 311.56,361.154 309.5,368.5C 309.665,365.15 309.498,361.817 309,358.5C 308.617,357.944 308.117,357.611 307.5,357.5C 307.628,355.345 307.128,353.345 306,351.5C 302.888,348.899 300.388,345.899 298.5,342.5C 298.842,341.662 299.508,341.328 300.5,341.5 Z"/></g>
<g><path style="opacity:1" fill="#565857" d="M 319.5,353.5 C 321.544,354.508 323.544,355.508 325.5,356.5C 322.687,356.975 320.687,355.975 319.5,353.5 Z"/></g>
<g><path style="opacity:1" fill="#555657" d="M 130.5,355.5 C 132.595,356.412 134.595,357.579 136.5,359C 139.146,359.497 141.813,359.664 144.5,359.5C 141.696,360.638 138.696,360.805 135.5,360C 133.077,359.303 131.411,357.803 130.5,355.5 Z"/></g>
<g><path style="opacity:1" fill="#5f6161" d="M 150.5,350.5 C 153.036,353.557 152.369,356.223 148.5,358.5C 150.046,356.118 150.713,353.451 150.5,350.5 Z"/></g>
<g><path style="opacity:1" fill="#090a0a" d="M 197.5,361.5 C 200.167,366.833 200.167,372.167 197.5,377.5C 196.294,381.577 194.294,385.243 191.5,388.5C 188.36,389.641 185.027,389.808 181.5,389C 178.932,386.603 176.599,384.103 174.5,381.5C 173.619,375.523 174.953,370.189 178.5,365.5C 180.822,364.198 182.155,362.198 182.5,359.5C 187.97,356.567 192.97,357.233 197.5,361.5 Z"/></g>
<g><path style="opacity:1" fill="#babcbb" d="M 194.5,354.5 C 197.346,354.552 199.68,355.552 201.5,357.5C 199.46,356.481 197.46,356.481 195.5,357.5C 197.938,358.931 199.604,360.931 200.5,363.5C 199.5,362.833 198.5,362.167 197.5,361.5C 192.97,357.233 187.97,356.567 182.5,359.5C 180.674,361.147 179.34,363.147 178.5,365.5C 174.953,370.189 173.619,375.523 174.5,381.5C 173.833,379.167 173.167,376.833 172.5,374.5C 172.5,373.833 172.5,373.167 172.5,372.5C 173.638,369.087 174.971,365.754 176.5,362.5C 177.987,359.454 178.987,356.121 179.5,352.5C 180.249,354.012 181.416,355.012 183,355.5C 186.776,354.606 190.61,354.272 194.5,354.5 Z"/></g>
<g><path style="opacity:1" fill="#3d3d3d" d="M 258.5,359.5 C 261.833,362.167 264.833,365.167 267.5,368.5C 263.5,366.5 260.5,363.5 258.5,359.5 Z"/></g>
<g><path style="opacity:1" fill="#676968" d="M 182.5,359.5 C 182.155,362.198 180.822,364.198 178.5,365.5C 179.34,363.147 180.674,361.147 182.5,359.5 Z"/></g>
<g><path style="opacity:1" fill="#575858" d="M 307.5,357.5 C 308.117,357.611 308.617,357.944 309,358.5C 309.498,361.817 309.665,365.15 309.5,368.5C 309.34,370.153 308.674,371.486 307.5,372.5C 308.69,367.477 308.69,362.477 307.5,357.5 Z"/></g>
<g><path style="opacity:1" fill="#b8babb" d="M 136.5,335.5 C 141.846,339.185 147.179,342.851 152.5,346.5C 153.343,348.173 154.676,349.34 156.5,350C 155.663,351.011 155.33,352.178 155.5,353.5C 150.585,360.581 150.252,367.914 154.5,375.5C 148.562,372.204 147.228,367.537 150.5,361.5C 150.253,360.287 149.586,359.62 148.5,359.5C 148.5,359.167 148.5,358.833 148.5,358.5C 152.369,356.223 153.036,353.557 150.5,350.5C 145.661,346.499 140.661,342.666 135.5,339C 133.975,337.991 132.308,337.491 130.5,337.5C 132.223,336.193 134.057,336.193 136,337.5C 136.464,336.906 136.631,336.239 136.5,335.5 Z"/></g>
<g><path style="opacity:1" fill="#dcdfdf" d="M 201.5,357.5 C 202.5,357.833 203.167,358.5 203.5,359.5C 205.073,365.453 204.74,371.286 202.5,377C 202.645,377.772 202.978,378.439 203.5,379C 212.633,380.455 212.633,381.455 203.5,382C 202.058,382.377 201.058,383.21 200.5,384.5C 200.167,384.5 199.833,384.5 199.5,384.5C 198.503,384.53 197.836,384.03 197.5,383C 198.222,380.323 199.222,377.823 200.5,375.5C 201.743,371.484 201.743,367.484 200.5,363.5C 199.604,360.931 197.938,358.931 195.5,357.5C 197.46,356.481 199.46,356.481 201.5,357.5 Z"/></g>
<g><path style="opacity:1" fill="#393b3b" d="M 197.5,361.5 C 198.5,362.167 199.5,362.833 200.5,363.5C 201.743,367.484 201.743,371.484 200.5,375.5C 199.5,376.167 198.5,376.833 197.5,377.5C 200.167,372.167 200.167,366.833 197.5,361.5 Z"/></g>
<g><path style="opacity:1" fill="#57585a" d="M 271.5,367.5 C 274.089,368.419 276.089,370.086 277.5,372.5C 274.911,371.581 272.911,369.914 271.5,367.5 Z"/></g>
<g><path style="opacity:1" fill="#abacad" d="M 271.5,367.5 C 272.911,369.914 274.911,371.581 277.5,372.5C 278.211,374.03 279.211,375.363 280.5,376.5C 279.624,376.369 278.957,376.702 278.5,377.5C 280.636,378.969 281.97,380.969 282.5,383.5C 281.5,382.833 280.5,382.167 279.5,381.5C 275.839,376.802 271.839,372.469 267.5,368.5C 264.833,365.167 261.833,362.167 258.5,359.5C 257.596,358.791 257.263,357.791 257.5,356.5C 260.14,356.954 262.473,358.121 264.5,360C 266.333,362.998 268.666,365.498 271.5,367.5 Z"/></g>
<g><path style="opacity:1" fill="#3a3a3a" d="M 233.5,374.5 C 232.624,374.369 231.957,374.702 231.5,375.5C 232.77,376.288 233.77,377.288 234.5,378.5C 230.991,378.192 229.324,376.192 229.5,372.5C 231.38,372.229 232.713,372.896 233.5,374.5 Z"/></g>
<g><path style="opacity:1" fill="#515254" d="M 172.5,372.5 C 172.5,373.167 172.5,373.833 172.5,374.5C 168.299,378.266 163.632,379.266 158.5,377.5C 164.072,378.034 168.738,376.368 172.5,372.5 Z"/></g>
<g><path style="opacity:1" fill="#9c9f9f" d="M 307.5,373.5 C 303.345,381.743 296.678,384.909 287.5,383C 286.944,382.617 286.611,382.117 286.5,381.5C 290.514,381.666 294.514,381.499 298.5,381C 301.71,378.613 304.71,376.113 307.5,373.5 Z"/></g>
<g><path style="opacity:1" fill="#393a3a" d="M 212.5,385.5 C 207.172,383.928 202.172,384.595 197.5,387.5C 198.167,386.5 198.833,385.5 199.5,384.5C 199.833,384.5 200.167,384.5 200.5,384.5C 204.112,383.489 207.779,383.322 211.5,384C 212.056,384.383 212.389,384.883 212.5,385.5 Z"/></g>
<g><path style="opacity:1" fill="#a7a8a8" d="M 233.5,374.5 C 238.37,376.766 243.037,379.266 247.5,382C 248.759,384.727 250.759,386.561 253.5,387.5C 254.585,389.587 256.251,390.92 258.5,391.5C 258.833,391.5 259.167,391.5 259.5,391.5C 259.833,392.167 260.167,392.833 260.5,393.5C 259.5,393.5 258.5,393.5 257.5,393.5C 257.975,396.082 257.308,398.082 255.5,399.5C 257.138,397.045 256.805,395.045 254.5,393.5C 248.229,388.025 241.563,383.025 234.5,378.5C 233.77,377.288 232.77,376.288 231.5,375.5C 231.957,374.702 232.624,374.369 233.5,374.5 Z"/></g>
<g><path style="opacity:1" fill="#838485" d="M 200.5,375.5 C 199.222,377.823 198.222,380.323 197.5,383C 197.836,384.03 198.503,384.53 199.5,384.5C 198.833,385.5 198.167,386.5 197.5,387.5C 197.5,390.167 197.5,392.833 197.5,395.5C 196.053,394.866 195.387,393.699 195.5,392C 196.125,390.159 196.292,388.326 196,386.5C 194.67,387.582 193.17,388.249 191.5,388.5C 194.294,385.243 196.294,381.577 197.5,377.5C 198.5,376.833 199.5,376.167 200.5,375.5 Z"/></g>
<g><path style="opacity:1" fill="#090a0a" d="M 212.5,385.5 C 214.598,388.44 216.931,391.274 219.5,394C 222.266,395.467 224.766,397.3 227,399.5C 226.967,401.478 225.8,402.478 223.5,402.5C 218.044,404.12 212.377,404.787 206.5,404.5C 203.249,401.916 200.249,398.916 197.5,395.5C 197.5,392.833 197.5,390.167 197.5,387.5C 202.172,384.595 207.172,383.928 212.5,385.5 Z"/></g>
<g><path style="opacity:1" fill="#606261" d="M 253.5,387.5 C 255.749,388.08 257.415,389.413 258.5,391.5C 256.251,390.92 254.585,389.587 253.5,387.5 Z"/></g>
<g><path style="opacity:1" fill="#a1a4a4" d="M 203.5,359.5 C 204.117,359.611 204.617,359.944 205,360.5C 206.94,366.55 206.773,372.55 204.5,378.5C 206.857,378.337 209.19,378.503 211.5,379C 215.424,382.91 219.09,387.076 222.5,391.5C 226.553,393.29 229.887,395.957 232.5,399.5C 230.952,399.821 230.285,400.821 230.5,402.5C 228.194,402.993 225.861,403.326 223.5,403.5C 223.5,403.167 223.5,402.833 223.5,402.5C 225.8,402.478 226.967,401.478 227,399.5C 224.766,397.3 222.266,395.467 219.5,394C 216.931,391.274 214.598,388.44 212.5,385.5C 212.389,384.883 212.056,384.383 211.5,384C 207.779,383.322 204.112,383.489 200.5,384.5C 201.058,383.21 202.058,382.377 203.5,382C 212.633,381.455 212.633,380.455 203.5,379C 202.978,378.439 202.645,377.772 202.5,377C 204.74,371.286 205.073,365.453 203.5,359.5 Z"/></g>
<g><path style="opacity:1" fill="#323435" d="M 279.5,381.5 C 280.5,382.167 281.5,382.833 282.5,383.5C 284.615,389.344 282.948,393.511 277.5,396C 272.833,396.667 268.167,396.667 263.5,396C 262.627,394.955 261.627,394.122 260.5,393.5C 260.167,392.833 259.833,392.167 259.5,391.5C 261.544,392.031 263.211,393.198 264.5,395C 270.133,396.089 275.466,395.423 280.5,393C 281.935,388.987 281.602,385.154 279.5,381.5 Z"/></g>
<g><path style="opacity:1" fill="#bfc4c8" d="M 73.5,390.5 C 76.2684,395.265 78.7684,400.265 81,405.5C 87.6002,413.887 96.1002,419.387 106.5,422C 201.5,422.667 296.5,422.667 391.5,422C 403.193,420.238 412.693,414.738 420,405.5C 422.143,400.736 424.477,396.069 427,391.5C 427.498,394.482 427.665,397.482 427.5,400.5C 427.076,422.162 416.41,435.995 395.5,442C 304.513,443.628 213.513,443.961 122.5,443C 87.7139,442.714 71.3806,425.214 73.5,390.5 Z"/></g>
<g><path style="opacity:1" fill="#5d5f5e" d="M 223.5,402.5 C 223.5,402.833 223.5,403.167 223.5,403.5C 217.831,405.63 212.164,405.964 206.5,404.5C 212.377,404.787 218.044,404.12 223.5,402.5 Z"/></g>
<g><path style="opacity:1" fill="#7d7f81" d="M 234.5,399.5 C 236.196,399.685 237.529,400.519 238.5,402C 241.817,402.498 245.15,402.665 248.5,402.5C 245.024,403.643 241.358,403.81 237.5,403C 236.29,401.961 235.29,400.794 234.5,399.5 Z"/></g>
<g><path style="opacity:1" fill="#4f5051" d="M 254.5,393.5 C 256.805,395.045 257.138,397.045 255.5,399.5C 253.784,401.025 251.784,402.025 249.5,402.5C 250.641,400.912 252.141,399.579 254,398.5C 254.494,396.866 254.66,395.199 254.5,393.5 Z"/></g>
</svg>
